# xmcd
#
# Track frame offsets:
#	150
#	16602
#	33605
#	51160
#	73397
#	89382
#	104215
#	120872
#	135167
#	139255
#	151000
#	162305
#
# Disc length: 2210 seconds
#
# Revision: 1
# Processed by: cddbd v1.5.2PL0 Copyright (c) Steve Scherf et al.
# Submitted via: audiograbber 1.83.01
#
DISCID=9b08a00c
DTITLE=Tim Anthony - Things That Once Were
DYEAR=1995
DGENRE=Country
TTITLE0=Never Gonna Cry
TTITLE1=Every Time
TTITLE2=Eyes of Love
TTITLE3=Move Along
TTITLE4=The Time
TTITLE5=Love's in the Wind
TTITLE6=Is She Mine
TTITLE7=The Attraction
TTITLE8=A Little Bit
TTITLE9=When Love Goes Wrong
TTITLE10=Now You're in My Heart
TTITLE11=Never Gonna Cry (Reprise)
EXTD=
EXTT0=
EXTT1=
EXTT2=
EXTT3=
EXTT4=
EXTT5=
EXTT6=
EXTT7=
EXTT8=
EXTT9=
EXTT10=
EXTT11=
PLAYORDER=
